<?xml version="1.0" encoding="UTF-8"?>
<svg width="843px" height="311px" viewBox="0 0 843 311" version="1.1" xmlns="http://www.w3.org/2000/svg"
     xmlns:xlink="http://www.w3.org/1999/xlink">
    <!-- Generator: Sketch 42 (36781) - http://www.bohemiancoding.com/sketch -->
    <title>illustrations</title>
    <desc>Created with Sketch.</desc>
    <defs>
        <polygon id="path-1"
                 points="0 214.256055 115.622256 214.256055 115.622256 0.458269896 0 0.458269896"></polygon>
        <polygon id="path-3"
                 points="72.2390234 22.5605169 72.2390234 0.0513086611 0.000217935327 0.0513086611 0.000217935327 22.5605169"></polygon>
        <polygon id="path-5" points="0.0001 64.7209 96.905 64.7209 96.905 0 0.0001 0"></polygon>
        <polygon id="path-7"
                 points="77.274 0.001 77.274 18 38.6767 18 0.0794 18 0.0794 0.001 77.274 0.001"></polygon>
        <polygon id="path-9" points="0.8865 0.0639 0.8865 14.9999 17.7725 14.9999 17.7725 0.0639"></polygon>
        <polygon id="path-11" points="0.8865 0.0639 0.8865 14.9999 17.7725 14.9999 17.7725 0.0639"></polygon>
    </defs>
    <g id="Welcome" stroke="none" stroke-width="1" fill="none" fill-rule="evenodd">
        <g id="Desktop-–-About" transform="translate(-59.000000, -62.000000)">
            <g id="Banner" transform="translate(0.000000, 62.000000)">
                <g id="illustrations" transform="translate(59.000000, 0.000000)">
                    <g id="house" transform="translate(92.000000, 82.000000)">
                        <polygon id="Fill-1" fill="#DEDCD2"
                                 points="46.3725462 61.8251696 48.3698282 61.8251696 49.387212 228.032135 127.643622 228.032135 127.003416 52.0283905 128.999211 52.0283905 91.5255462 5.83068858"></polygon>
                        <polygon id="Fill-1" fill="#DEDCD2"
                                 points="25.3725462 70.8251696 27.3698282 70.8251696 27.3698282 228.541433 113.626238 228.541433 113.626238 70.8251696 115.622033 70.8251696 70.5255462 14.8306886"></polygon>
                        <polygon id="Fill-2" fill="#F9F7E8"
                                 points="70.4981077 14.7443166 70.4981077 228.541358 113.626313 228.541358 113.626313 70.8250952 115.622108 70.8250952 70.5256205 14.7696107"></polygon>
                        <g id="Group-25" transform="translate(0.000000, 14.285675)">
                            <path d="M81.5391513,44.8370969 C81.5391513,50.9381869 76.5957667,55.8839308 70.4975872,55.8839308 C64.3994077,55.8839308 59.4552795,50.9381869 59.4552795,44.8370969 C59.4552795,38.7360069 64.3994077,33.790263 70.4975872,33.790263 C76.5957667,33.790263 81.5391513,38.7360069 81.5391513,44.8370969 Z"
                                  id="Fill-3" fill="#26B5DB"></path>
                            <path d="M70.497959,33.7900398 C64.549241,33.7900398 59.4563949,38.7357837 59.4563949,44.8368737 C59.4563949,50.9379637 64.549241,55.8844516 70.497959,55.8844516 L70.497959,33.7900398 Z"
                                  id="Fill-5" fill="#1C88A4"></path>
                            <mask id="mask-2" fill="white">
                                <use xlink:href="#path-1"></use>
                            </mask>
                            <g id="Clip-8"></g>
                            <polygon id="Fill-7" fill="#26B5DB" mask="url(#mask-2)"
                                     points="70.4982564 100.432526 73.4726154 100.432526 73.4726154 85.5536332 70.4982564 85.5536332"></polygon>
                            <polygon id="Fill-9" fill="#26B5DB" mask="url(#mask-2)"
                                     points="83.8828718 100.432526 89.8315897 100.432526 89.8315897 85.5536332 83.8828718 85.5536332"></polygon>
                            <polygon id="Fill-10" fill="#1C88A4" mask="url(#mask-2)"
                                     points="51.1649231 100.432526 57.113641 100.432526 57.113641 85.5536332 51.1649231 85.5536332"></polygon>
                            <polygon id="Fill-11" fill="#26B5DB" mask="url(#mask-2)"
                                     points="70.4982564 136.885813 73.4726154 136.885813 73.4726154 122.00692 70.4982564 122.00692"></polygon>
                            <polygon id="Fill-12" fill="#26B5DB" mask="url(#mask-2)"
                                     points="83.8828718 136.885813 89.8315897 136.885813 89.8315897 122.00692 83.8828718 122.00692"></polygon>
                            <polygon id="Fill-13" fill="#1C88A4" mask="url(#mask-2)"
                                     points="51.1649231 136.885813 57.113641 136.885813 57.113641 122.00692 51.1649231 122.00692"></polygon>
                            <polygon id="Fill-14" fill="#26B5DB" mask="url(#mask-2)"
                                     points="70.4982564 174.82699 73.4726154 174.82699 73.4726154 159.948097 70.4982564 159.948097"></polygon>
                            <polygon id="Fill-15" fill="#1C88A4" mask="url(#mask-2)"
                                     points="67.5238974 100.432526 70.4982564 100.432526 70.4982564 85.5536332 67.5238974 85.5536332"></polygon>
                            <polygon id="Fill-16" fill="#1C88A4" mask="url(#mask-2)"
                                     points="67.5238974 136.885813 70.4982564 136.885813 70.4982564 122.00692 67.5238974 122.00692"></polygon>
                            <polygon id="Fill-17" fill="#1C88A4" mask="url(#mask-2)"
                                     points="67.5238974 174.82699 70.4982564 174.82699 70.4982564 159.948097 67.5238974 159.948097"></polygon>
                            <polygon id="Fill-18" fill="#02275D" mask="url(#mask-2)"
                                     points="70.4982564 214.256055 76.4469744 214.256055 76.4469744 194.913495 70.4982564 194.913495"></polygon>
                            <polygon id="Fill-19" fill="#021D46" mask="url(#mask-2)"
                                     points="64.5495385 214.256055 70.4982564 214.256055 70.4982564 194.913495 64.5495385 194.913495"></polygon>
                            <polygon id="Fill-20" fill="#26B5DB" mask="url(#mask-2)"
                                     points="70.4982564 203.096886 74.2162051 203.096886 74.2162051 197.145329 70.4982564 197.145329"></polygon>
                            <polygon id="Fill-21" fill="#1C88A4" mask="url(#mask-2)"
                                     points="66.7803077 203.096886 70.4982564 203.096886 70.4982564 197.145329 66.7803077 197.145329"></polygon>
                            <polygon id="Fill-22" fill="#26B5DB" mask="url(#mask-2)"
                                     points="83.8828718 174.82699 89.8315897 174.82699 89.8315897 159.948097 83.8828718 159.948097"></polygon>
                            <polygon id="Fill-23" fill="#1C88A4" mask="url(#mask-2)"
                                     points="51.1649231 174.82699 57.113641 174.82699 57.113641 159.948097 51.1649231 159.948097"></polygon>
                            <path d="M0,108.615917 L37.5193077,108.615917 C37.5193077,108.615917 36.3347692,103.275138 30.6998462,103.275138 C30.6998462,103.275138 28.8683846,99.9288754 24.923641,99.9288754 C20.979641,99.9288754 20.1341795,102.624931 20.1341795,102.624931 C20.1341795,102.624931 16.3307179,101.083478 12.9496154,102.069948 C9.56851282,103.056419 7.03287179,106.021038 7.03287179,106.021038 C7.03287179,106.021038 5.62376923,105.245848 3.22866667,105.809758 C0.834307692,106.373668 0,108.615917 0,108.615917"
                                  id="Fill-24" fill="#FFFFFF" mask="url(#mask-2)"></path>
                        </g>
                        <g id="solar-panel"
                           transform="translate(99.288026, 38.735122) rotate(1.200000) translate(-99.288026, -38.735122) translate(63.788026, 0.735122)">
                            <g id="Group-44"
                               transform="translate(35.213205, 37.794938) rotate(50.000000) translate(-35.213205, -37.794938) translate(-1.286795, 22.794938)">
                                <polygon id="Fill-7" fill="#7A7A52"
                                         points="27.8999355 14.851884 27.8999355 14.6810607 27.8999355 14.851884 26.4470333 14.851884 26.4470333 15.7769199 35.8908976 15.7769199 35.8908976 14.851884"></polygon>
                                <polygon id="Fill-9" fill="#3A3A1B"
                                         points="43.8818596 14.851884 43.8818596 14.5435387 44.6083107 14.5435387 44.6083107 14.851884 46.0612129 14.851884 46.0612129 15.7769199 35.8908976 15.7769199 35.8908976 14.851884"></polygon>
                                <polygon id="Fill-11" fill="#7A7A52"
                                         points="27.8999355 17.9353372 27.8999355 17.3695235 27.8999355 17.9353372 26.4470333 17.9353372 26.4470333 18.8603731 35.8908976 18.8603731 35.8908976 17.9353372"></polygon>
                                <polygon id="Fill-13" fill="#3A3A1B"
                                         points="43.8818596 17.9353372 43.8818596 17.3186465 44.6083107 17.3186465 44.6083107 17.9353372 46.0612129 17.9353372 46.0612129 18.8603731 35.8908976 18.8603731 35.8908976 17.9353372"></polygon>
                                <g id="Group-17" transform="translate(0.000000, 0.000000)">
                                    <mask id="mask-4" fill="white">
                                        <use xlink:href="#path-3"></use>
                                    </mask>
                                    <g id="Clip-16"></g>
                                    <polygon id="Fill-15" fill="#778E95" mask="url(#mask-4)"
                                             points="72.2392414 22.5605169 0.000217935328 22.5605169 6.55425972 0.0513086611 65.6851996 0.0513086611"></polygon>
                                </g>
                                <polygon id="Fill-18" fill="#FFFFFF"
                                         points="71.049605 21.9438263 1.18970896 21.9438263 7.74375075 0.667999299 64.4955633 0.667999299"></polygon>
                                <polygon id="Fill-20" fill="#021D46"
                                         points="17.7164714 15.1602293 3.15621208 15.1602293 0.96369947 21.964796 15.7426206 21.964796"></polygon>
                                <polygon id="Fill-22" fill="#021D46"
                                         points="35.8908976 15.1602293 18.6558453 15.1602293 16.8312569 21.9597359 36.0320859 21.9597359"></polygon>
                                <polygon id="Fill-24" fill="#1C88A4"
                                         points="53.5229553 15.1602293 36.6177119 15.1602293 36.7272394 21.9507544 55.598986 21.9507544"></polygon>
                                <polygon id="Fill-26" fill="#1C88A4"
                                         points="69.0050144 15.1681207 54.4622566 15.1602293 56.4686042 21.940324 71.0288635 21.940324"></polygon>
                                <polygon id="Fill-28" fill="#021D46"
                                         points="20.0078954 7.47910092 5.55897667 7.47910092 3.45122214 14.5178233 18.0564299 14.4812143"></polygon>
                                <polygon id="Fill-30" fill="#021D46"
                                         points="35.7791016 7.39743353 20.8442989 7.39743353 18.8928334 14.3998493 35.7791016 14.3998493"></polygon>
                                <polygon id="Fill-32" fill="#1C88A4"
                                         points="50.9980818 7.30394938 36.3898451 7.30394938 36.3898451 14.3061633 52.9495473 14.3061633"></polygon>
                                <polygon id="Fill-34" fill="#1C88A4"
                                         points="66.5190914 7.26399194 51.973904 7.19504147 53.9253695 14.1971548 68.6868257 14.2661053"></polygon>
                                <polygon id="Fill-36" fill="#021D46"
                                         points="21.7855374 0.651280418 7.63721145 0.589333769 5.77030242 6.79732132 20.1314056 6.84600423"></polygon>
                                <polygon id="Fill-38" fill="#021D46"
                                         points="35.7427064 0.661808926 22.6903244 0.685365854 21.036955 6.82790658 35.8391967 6.82790658"></polygon>
                                <polygon id="Fill-40" fill="#1C88A4"
                                         points="49.1368792 0.662051856 36.5347088 0.647151379 36.5337463 6.81058698 51.0123207 6.81058698"></polygon>
                                <polygon id="Fill-42" fill="#1C88A4"
                                         points="64.545747 0.647748994 49.8671442 0.637745338 51.9198914 6.79885509 66.3978109 6.79479692"></polygon>
                            </g>
                        </g>
                    </g>
                    <g id="sun" transform="translate(661.000000, 0.000000)">
                        <mask id="mask-6" fill="white">
                            <use xlink:href="#path-5"></use>
                        </mask>
                        <g id="Clip-2"></g>
                        <path d="M2.8321,0 C1.0001,5 0.0001,10.557 0.0001,16.297 C0.0001,43.056 21.6931,64.721 48.4521,64.721 C75.2121,64.721 96.9051,43.07 96.9051,16.311 C96.9051,10.572 95.9041,5 94.0731,0 L2.8321,0 Z"
                              id="Fill-1" fill="#EFE79C" mask="url(#mask-6)"></path>
                    </g>
                    <g id="clouds" transform="translate(0.000000, 65.000000)">
                        <path d="M721,66.03 L771.457,66.03 C771.457,66.03 769.864,58.616 762.286,58.616 C762.286,58.616 759.823,54 754.518,54 C749.214,54 748.077,57.565 748.077,57.565 C748.077,57.565 742.962,55.464 738.415,56.79 C733.868,58.117 730.458,62.087 730.458,62.087 C730.458,62.087 728.563,61.272 725.342,62.03 C722.122,62.788 721,66.03 721,66.03"
                              id="Fill-1" fill="#FFFFFF"></path>
                        <path d="M0,19.03 L77,19.03 C77,19.03 74.5689993,7.71585132 63.0045782,7.71585132 C63.0045782,7.71585132 59.2459124,0.671595814 51.1502071,0.671595814 C43.0560279,0.671595814 41.3209069,6.11197079 41.3209069,6.11197079 C41.3209069,6.11197079 33.5151515,2.90573578 26.5761936,4.92928058 C19.6372357,6.95435143 14.4333987,13.0127774 14.4333987,13.0127774 C14.4333987,13.0127774 11.5415304,11.7690451 6.62611729,12.9257925 C1.71223022,14.0825398 0,19.03 0,19.03"
                              id="Fill-1-Copy" fill="#FFFFFF"></path>
                        <g id="Group-5" transform="translate(765.000000, 111.029800)">
                            <mask id="mask-8" fill="white">
                                <use xlink:href="#path-7"></use>
                            </mask>
                            <g id="Clip-4"></g>
                            <path d="M77.2744,18 L0.0794,18 C0.0794,18 2.5164,6.928 14.1104,6.928 C14.1104,6.928 17.8784,0.001 25.9944,0.001 C34.1094,0.001 35.8484,5.524 35.8484,5.524 C35.8484,5.524 43.6744,2.343 50.6314,4.372 C57.5874,6.401 62.8044,12.491 62.8044,12.491 C62.8044,12.491 65.7034,10.984 70.6304,12.143 C75.5584,13.302 77.2744,18 77.2744,18"
                                  id="Fill-3" fill="#FFFFFF" mask="url(#mask-8)"></path>
                        </g>
                    </g>
                    <g id="power-pole" transform="translate(800.000000, 238.000000)">
                        <polygon id="Fill-1" fill="#BFBF96"
                                 points="13.887 72.0003 15.887 72.0003 15.887 0.0003 13.887 0.0003"></polygon>
                        <polygon id="Fill-2" fill="#F9FEFC"
                                 points="11.886 72.0003 13.887 72.0003 13.887 0.0003 11.886 0.0003"></polygon>
                        <g id="Group-16" transform="translate(0.000000, 5.398300)">
                            <g id="Group-7" transform="translate(13.000000, 66.000000)">
                                <mask id="mask-10" fill="white">
                                    <use xlink:href="#path-9"></use>
                                </mask>
                                <g id="Clip-6"></g>
                            </g>
                            <polygon id="Fill-8" fill="#7A7A52"
                                     points="2.8862 2.6017 2.8862 0.6017 1.8862 0.6017 1.8862 2.6017 0.8862 2.6017 0.8862 5.6017 13.8862 5.6017 13.8862 2.6017"></polygon>
                            <polygon id="Fill-10" fill="#3A3A1B"
                                     points="25.8863 2.6017 25.8863 0.6017 26.8863 0.6017 26.8863 2.6017 27.8863 2.6017 27.8863 5.6017 13.8863 5.6017 13.8863 2.6017"></polygon>
                            <polygon id="Fill-12" fill="#7A7A52"
                                     points="2.8862 11.6017 2.8862 10.6017 1.8862 10.6017 1.8862 11.6017 0.8862 11.6017 0.8862 15.6017 13.8862 15.6017 13.8862 11.6017"></polygon>
                            <polygon id="Fill-14" fill="#3A3A1B"
                                     points="25.8863 11.6017 25.8863 10.6017 26.8863 10.6017 26.8863 11.6017 27.8863 11.6017 27.8863 15.6017 13.8863 15.6017 13.8863 11.6017"></polygon>
                        </g>
                    </g>
                    <g id="power-pole-copy" transform="translate(670.000000, 238.000000)">
                        <polygon id="Fill-1" fill="#BFBF96"
                                 points="13.887 72.0003 15.887 72.0003 15.887 0.0003 13.887 0.0003"></polygon>
                        <polygon id="Fill-2" fill="#F9FEFC"
                                 points="11.886 72.0003 13.887 72.0003 13.887 0.0003 11.886 0.0003"></polygon>
                        <g id="Group-16" transform="translate(0.000000, 5.398300)">
                            <g id="Group-7" transform="translate(13.000000, 66.000000)">
                                <mask id="mask-12" fill="white">
                                    <use xlink:href="#path-11"></use>
                                </mask>
                                <g id="Clip-6"></g>
                            </g>
                            <polygon id="Fill-8" fill="#7A7A52"
                                     points="2.8862 2.6017 2.8862 0.6017 1.8862 0.6017 1.8862 2.6017 0.8862 2.6017 0.8862 5.6017 13.8862 5.6017 13.8862 2.6017"></polygon>
                            <polygon id="Fill-10" fill="#3A3A1B"
                                     points="25.8863 2.6017 25.8863 0.6017 26.8863 0.6017 26.8863 2.6017 27.8863 2.6017 27.8863 5.6017 13.8863 5.6017 13.8863 2.6017"></polygon>
                            <polygon id="Fill-12" fill="#7A7A52"
                                     points="2.8862 11.6017 2.8862 10.6017 1.8862 10.6017 1.8862 11.6017 0.8862 11.6017 0.8862 15.6017 13.8862 15.6017 13.8862 11.6017"></polygon>
                            <polygon id="Fill-14" fill="#3A3A1B"
                                     points="25.8863 11.6017 25.8863 10.6017 26.8863 10.6017 26.8863 11.6017 27.8863 11.6017 27.8863 15.6017 13.8863 15.6017 13.8863 11.6017"></polygon>
                        </g>
                    </g>
                </g>
            </g>
        </g>
    </g>
    {#            <g id="Welcome" stroke="none" stroke-width="1" fill="none" fill-rule="evenodd">#}
    {#                <g id="Desktop-HD" transform="translate(-42.000000, -18.000000)" fill="#FFFFFF">#}
    {#                    <g id="Navigation">#}
    {#                        <g id="logo" transform="translate(42.000000, 18.000000)">#}
    {#                            <g id="elwedo">#}
    {#                                <path d="M4.00174825,15.7582721 L4.00174825,15.7768842 L12.5192308,15.7768842 C12.5069929,14.6105181 12.097032,13.605473 11.2893357,12.7617187 C10.4571637,11.9303727 9.47203366,11.5147059 8.33391608,11.5147059 L8.20541958,11.5147059 C7.04282635,11.5147059 6.05157753,11.9303727 5.23164336,12.7617187 C4.41170919,13.5930648 4.00174825,14.5919059 4.00174825,15.7582721 Z M15.8417832,14.4368107 C15.927448,14.8710959 15.9702797,15.3115786 15.9702797,15.7582721 C15.9702797,16.3910877 15.8111904,16.974262 15.493007,17.5078125 C14.8321645,18.6617705 13.8470345,19.2387408 12.5375874,19.2387408 L4.00174825,19.2573529 C4.00174825,20.4361272 4.41170919,21.4411723 5.23164336,22.2725184 C6.05157753,23.1038645 7.04282635,23.5195312 8.20541958,23.5195312 L8.33391608,23.5195312 C9.7535036,23.5195312 10.8854853,22.930153 11.7298951,21.7513787 C12.219408,21.0689304 12.8618841,20.870403 13.6573427,21.1557904 C14.2080447,21.3419127 14.5690551,21.7141516 14.7403846,22.2725184 C14.9117141,22.8432933 14.8260507,23.3644278 14.4833916,23.8359375 C12.9536637,25.945323 10.903859,27 8.33391608,27 L8.20541958,27 C6.11275177,27 4.31993753,26.2493182 2.82692308,24.747932 C1.34614644,23.258954 0.593531591,21.4535952 0.569055944,19.3318015 L0.569055944,15.7582721 C0.569055944,13.6240702 1.31555198,11.8063035 2.80856643,10.3049173 C4.30158089,8.79112295 6.10051395,8.03423713 8.20541958,8.03423713 L8.33391608,8.03423713 C10.4632974,8.03423713 12.2744681,8.80353091 13.7674825,10.3421415 C14.4772763,11.0742224 15.0218513,11.91176 15.4012238,12.8547794 C15.6092668,13.3635136 15.7561185,13.890852 15.8417832,14.4368107 Z M22.5847902,1.25942096 C22.9152114,1.60684916 23.0804196,2.01631198 23.0804196,2.48782169 L23.0804196,19.2573529 C23.0804196,20.4361272 23.4903805,21.4411723 24.3103147,22.2725184 C25.1302489,23.1038645 26.1214977,23.5195312 27.2840909,23.5195312 L27.3024476,23.5195312 C27.7797227,23.5195312 28.1835648,23.6870388 28.513986,24.0220588 C28.8566451,24.369487 29.027972,24.7789498 29.027972,25.2504596 C29.027972,25.7343774 28.8566451,26.1500442 28.513986,26.4974724 C28.1835648,26.8324925 27.7797227,27 27.3024476,27 L27.2840909,27 C25.1791853,27 23.3802522,26.2431142 21.8872378,24.7293199 C20.3942233,23.2155255 19.6477273,21.3915548 19.6477273,19.2573529 L19.6477273,2.48782169 C19.6477273,2.01631198 19.8129354,1.60684916 20.1433566,1.25942096 C20.4860157,0.924400898 20.8959766,0.756893382 21.3732517,0.756893382 C21.838289,0.756893382 22.2421312,0.924400898 22.5847902,1.25942096 Z M54.3479021,8.31341912 C53.9073405,8.51194952 53.6075183,8.83455659 53.4484266,9.28125 L49.2814685,20.3740809 L45.1328671,9.28125 C44.9615376,8.83455659 44.6617154,8.51194952 44.2333916,8.31341912 C43.8050678,8.11488871 43.3645128,8.10248075 42.9117133,8.27619485 C42.5078651,8.43750081 42.2080429,8.71668 42.0122378,9.11374081 C41.9632865,9.17578156 41.9326924,9.2316174 41.9204545,9.28125 L37.7718531,20.3740809 L33.6048951,9.28125 C33.4335656,8.83455659 33.1337434,8.51194952 32.7054196,8.31341912 C32.2770958,8.11488871 31.8426595,8.10248075 31.4020979,8.27619485 C30.9492984,8.44990896 30.6311198,8.75390408 30.4475524,9.18818934 C30.2517473,9.6224746 30.2333908,10.0691613 30.3924825,10.5282629 L36.1564685,25.8832721 C36.3277981,26.3671899 36.6582143,26.702205 37.1477273,26.8883272 L37.1844406,26.8883272 C37.1844406,26.9007354 37.1905594,26.9069393 37.2027972,26.9069393 C37.288462,26.9317556 37.3741254,26.9503676 37.4597902,26.9627757 C37.472028,26.9751839 37.508741,26.9813879 37.5699301,26.9813879 C37.643357,26.993796 37.710664,27 37.7718531,27 C37.8208044,27 37.8819926,26.993796 37.9554196,26.9813879 C38.0166087,26.9813879 38.0594404,26.9751839 38.0839161,26.9627757 C38.157343,26.9503676 38.2368877,26.9317556 38.3225524,26.9069393 C38.3347903,26.9069393 38.3409091,26.9007354 38.3409091,26.8883272 L38.3776224,26.8883272 C38.8671353,26.702205 39.1975516,26.3671899 39.3688811,25.8832721 L43.5174825,14.8090533 L47.6844406,25.8832721 C47.8557701,26.3671899 48.1861864,26.702205 48.6756993,26.8883272 L48.7124126,26.8883272 C48.7124126,26.9007354 48.7185314,26.9069393 48.7307692,26.9069393 C48.816434,26.9317556 48.8959787,26.9503676 48.9694056,26.9627757 C48.9938812,26.9751839 49.036713,26.9813879 49.0979021,26.9813879 C49.171329,26.993796 49.2325172,27 49.2814685,27 C49.3426576,27 49.4099647,26.993796 49.4833916,26.9813879 C49.5445807,26.9813879 49.5812936,26.9751839 49.5935315,26.9627757 C49.6791962,26.9503676 49.7648597,26.9317556 49.8505245,26.9069393 L49.8688811,26.8883272 L49.9055944,26.8883272 C50.3828695,26.702205 50.7132858,26.3671899 50.8968531,25.8832721 L56.6608392,10.5282629 C56.8199309,10.0691613 56.8015744,9.6224746 56.6057692,9.18818934 C56.4099641,8.75390408 56.0917854,8.44990896 55.6512238,8.27619485 C55.2106621,8.10248075 54.7762259,8.11488871 54.3479021,8.31341912 Z M62.743007,15.7582721 L62.743007,15.7768842 L71.2604895,15.7768842 C71.2482517,14.6105181 70.8382908,13.605473 70.0305944,12.7617187 C69.1984224,11.9303727 68.2132924,11.5147059 67.0751748,11.5147059 L66.9466783,11.5147059 C65.7840851,11.5147059 64.7928363,11.9303727 63.9729021,12.7617187 C63.1529679,13.5930648 62.743007,14.5919059 62.743007,15.7582721 Z M74.583042,14.4368107 C74.6687067,14.8710959 74.7115385,15.3115786 74.7115385,15.7582721 C74.7115385,16.3910877 74.5524491,16.974262 74.2342657,17.5078125 C73.5734233,18.6617705 72.5882933,19.2387408 71.2788462,19.2387408 L62.743007,19.2573529 C62.743007,20.4361272 63.1529679,21.4411723 63.9729021,22.2725184 C64.7928363,23.1038645 65.7840851,23.5195312 66.9466783,23.5195312 L67.0751748,23.5195312 C68.4947623,23.5195312 69.626744,22.930153 70.4711538,21.7513787 C70.9606668,21.0689304 71.6031429,20.870403 72.3986014,21.1557904 C72.9493035,21.3419127 73.3103138,21.7141516 73.4816434,22.2725184 C73.6529729,22.8432933 73.5673094,23.3644278 73.2246503,23.8359375 C71.6949224,25.945323 69.6451177,27 67.0751748,27 L66.9466783,27 C64.8540105,27 63.0611963,26.2493182 61.5681818,24.747932 C60.0874052,23.258954 59.3347903,21.4535952 59.3103147,19.3318015 L59.3103147,15.7582721 C59.3103147,13.6240702 60.0568107,11.8063035 61.5498252,10.3049173 C63.0428396,8.79112295 64.8417727,8.03423713 66.9466783,8.03423713 L67.0751748,8.03423713 C69.2045561,8.03423713 71.0157268,8.80353091 72.5087413,10.3421415 C73.218535,11.0742224 73.76311,11.91176 74.1424825,12.8547794 C74.3505255,13.3635136 74.4973772,13.890852 74.583042,14.4368107 Z M89.6416084,19.2573529 L89.6416084,15.7024357 C89.6416084,14.5236614 89.2255286,13.5186163 88.3933566,12.6872702 C87.5734225,11.8559242 86.5882925,11.4402574 85.4379371,11.4402574 L85.3094406,11.4402574 C84.1468473,11.4402574 83.1555985,11.8559242 82.3356643,12.6872702 C81.5157302,13.5186163 81.1057692,14.5236614 81.1057692,15.7024357 L81.1057692,19.2573529 C81.1057692,20.4361272 81.5157302,21.4411723 82.3356643,22.2725184 C83.1555985,23.1038645 84.1468473,23.5195313 85.3094406,23.5195313 L85.4379371,23.5195313 C86.5882925,23.5195313 87.5734225,23.1038645 88.3933566,22.2725184 C89.2255286,21.4411723 89.6416084,20.4361272 89.6416084,19.2573529 Z M90.1372378,1.18497243 C90.467659,0.849952369 90.8715011,0.682444853 91.3487762,0.682444853 C91.8260513,0.682444853 92.2298935,0.849952369 92.5603147,1.18497243 C92.9029737,1.53240063 93.0743007,1.94186345 93.0743007,2.41337316 L93.0743007,25.2504596 C93.0743007,25.7343774 92.9029737,26.1500442 92.5603147,26.4974724 C92.2298935,26.8324925 91.8260513,27 91.3487762,27 C90.4554151,27 89.9047213,26.5595173 89.6966783,25.6785386 C88.4117069,26.5595173 86.9921406,27 85.4379371,27 L85.3094406,27 C83.2045349,27 81.4056019,26.2431142 79.9125874,24.7293199 C78.419573,23.2155255 77.6730769,21.3915548 77.6730769,19.2573529 L77.6730769,15.7024357 C77.6730769,13.5682338 78.419573,11.7442631 79.9125874,10.2304687 C81.4056019,8.71667442 83.2045349,7.9597886 85.3094406,7.9597886 L85.4379371,7.9597886 C86.9554272,7.9597886 88.3566369,8.38786337 89.6416084,9.24402574 L89.6416084,2.41337316 C89.6416084,1.94186345 89.8068165,1.53240063 90.1372378,1.18497243 Z M108.371503,19.2573529 L108.371503,15.7024357 C108.371503,14.5236614 107.955424,13.5186163 107.123252,12.6872702 C106.303318,11.8559242 105.318188,11.4402574 104.167832,11.4402574 L104.039336,11.4402574 C102.876742,11.4402574 101.885494,11.8559242 101.065559,12.6872702 C100.245625,13.5186163 99.8356643,14.5236614 99.8356643,15.7024357 L99.8356643,19.2573529 C99.8356643,20.4361272 100.245625,21.4411723 101.065559,22.2725184 C101.885494,23.1038645 102.876742,23.5195313 104.039336,23.5195313 L104.167832,23.5195313 C105.318188,23.5195313 106.303318,23.1038645 107.123252,22.2725184 C107.955424,21.4411723 108.371503,20.4361272 108.371503,19.2573529 Z M104.039336,7.9597886 L104.167832,7.9597886 C106.272738,7.9597886 108.071671,8.71667442 109.564685,10.2304688 C111.0577,11.7442631 111.804196,13.5682338 111.804196,15.7024357 L111.804196,19.2573529 C111.804196,21.3915548 111.0577,23.2155255 109.564685,24.7293199 C108.071671,26.2431142 106.272738,27 104.167832,27 L104.039336,27 C101.93443,27 100.135497,26.2431142 98.6424825,24.7293199 C97.1494681,23.2155255 96.402972,21.3915548 96.402972,19.2573529 L96.402972,15.7024357 C96.402972,13.5682338 97.1494681,11.7442631 98.6424825,10.2304688 C100.135497,8.71667442 101.93443,7.9597886 104.039336,7.9597886 Z"></path>#}
    {#                            </g>#}
    {#                        </g>#}
    {#                    </g>#}
    {#                </g>#}
    {#            </g>#}
</svg>