<?xml version="1.0" encoding="UTF-8"?>
<svg width="843px" height="311px" viewBox="0 0 843 311" version="1.1" xmlns="http://www.w3.org/2000/svg"
     xmlns:xlink="http://www.w3.org/1999/xlink">
    <defs>
        <polygon id="path-1"
                 points="0 214.256055 115.622256 214.256055 115.622256 0.458269896 0 0.458269896"></polygon>
        <polygon id="path-3"
                 points="72.2390234 22.5605169 72.2390234 0.0513086611 0.000217935327 0.0513086611 0.000217935327 22.5605169"></polygon>
        <polygon id="path-5" points="0.0001 64.7209 96.905 64.7209 96.905 0 0.0001 0"></polygon>
        <polygon id="path-7"
                 points="77.274 0.001 77.274 18 38.6767 18 0.0794 18 0.0794 0.001 77.274 0.001"></polygon>
        <polygon id="path-9" points="0.8865 0.0639 0.8865 14.9999 17.7725 14.9999 17.7725 0.0639"></polygon>
        <polygon id="path-11" points="0.8865 0.0639 0.8865 14.9999 17.7725 14.9999 17.7725 0.0639"></polygon>
    </defs>
    <g id="Welcome" stroke="none" stroke-width="1" fill="none" fill-rule="evenodd">
        <g id="Desktop-–-About" transform="translate(-59.000000, -62.000000)">
            <g id="Banner" transform="translate(0.000000, 62.000000)">
                <g id="illustrations" transform="translate(59.000000, 0.000000)">
                    <g id="house" transform="translate(92.000000, 82.000000)">
                        <polygon id="Fill-1" fill="#DEDCD2"
                                 points="46.3725462 61.8251696 48.3698282 61.8251696 49.387212 228.032135 127.643622 228.032135 127.003416 52.0283905 128.999211 52.0283905 91.5255462 5.83068858"></polygon>
                        <polygon id="Fill-1" fill="#DEDCD2"
                                 points="25.3725462 70.8251696 27.3698282 70.8251696 27.3698282 228.541433 113.626238 228.541433 113.626238 70.8251696 115.622033 70.8251696 70.5255462 14.8306886"></polygon>
                        <polygon id="Fill-2" fill="#F9F7E8"
                                 points="70.4981077 14.7443166 70.4981077 228.541358 113.626313 228.541358 113.626313 70.8250952 115.622108 70.8250952 70.5256205 14.7696107"></polygon>
                        <g id="Group-25" transform="translate(0.000000, 14.285675)">
                            <path d="M81.5391513,44.8370969 C81.5391513,50.9381869 76.5957667,55.8839308 70.4975872,55.8839308 C64.3994077,55.8839308 59.4552795,50.9381869 59.4552795,44.8370969 C59.4552795,38.7360069 64.3994077,33.790263 70.4975872,33.790263 C76.5957667,33.790263 81.5391513,38.7360069 81.5391513,44.8370969 Z"
                                  id="Fill-3" fill="#26B5DB"></path>
                            <path d="M70.497959,33.7900398 C64.549241,33.7900398 59.4563949,38.7357837 59.4563949,44.8368737 C59.4563949,50.9379637 64.549241,55.8844516 70.497959,55.8844516 L70.497959,33.7900398 Z"
                                  id="Fill-5" fill="#1C88A4"></path>
                            <mask id="mask-2" fill="white">
                                <use xlink:href="#path-1"></use>
                            </mask>
                            <g id="Clip-8"></g>
                            <polygon id="Fill-7" fill="#26B5DB" mask="url(#mask-2)"
                                     points="70.4982564 100.432526 73.4726154 100.432526 73.4726154 85.5536332 70.4982564 85.5536332"></polygon>
                            <polygon id="Fill-9" fill="#26B5DB" mask="url(#mask-2)"
                                     points="83.8828718 100.432526 89.8315897 100.432526 89.8315897 85.5536332 83.8828718 85.5536332"></polygon>
                            <polygon id="Fill-10" fill="#1C88A4" mask="url(#mask-2)"
                                     points="51.1649231 100.432526 57.113641 100.432526 57.113641 85.5536332 51.1649231 85.5536332"></polygon>
                            <polygon id="Fill-11" fill="#26B5DB" mask="url(#mask-2)"
                                     points="70.4982564 136.885813 73.4726154 136.885813 73.4726154 122.00692 70.4982564 122.00692"></polygon>
                            <polygon id="Fill-12" fill="#26B5DB" mask="url(#mask-2)"
                                     points="83.8828718 136.885813 89.8315897 136.885813 89.8315897 122.00692 83.8828718 122.00692"></polygon>
                            <polygon id="Fill-13" fill="#1C88A4" mask="url(#mask-2)"
                                     points="51.1649231 136.885813 57.113641 136.885813 57.113641 122.00692 51.1649231 122.00692"></polygon>
                            <polygon id="Fill-14" fill="#26B5DB" mask="url(#mask-2)"
                                     points="70.4982564 174.82699 73.4726154 174.82699 73.4726154 159.948097 70.4982564 159.948097"></polygon>
                            <polygon id="Fill-15" fill="#1C88A4" mask="url(#mask-2)"
                                     points="67.5238974 100.432526 70.4982564 100.432526 70.4982564 85.5536332 67.5238974 85.5536332"></polygon>
                            <polygon id="Fill-16" fill="#1C88A4" mask="url(#mask-2)"
                                     points="67.5238974 136.885813 70.4982564 136.885813 70.4982564 122.00692 67.5238974 122.00692"></polygon>
                            <polygon id="Fill-17" fill="#1C88A4" mask="url(#mask-2)"
                                     points="67.5238974 174.82699 70.4982564 174.82699 70.4982564 159.948097 67.5238974 159.948097"></polygon>
                            <polygon id="Fill-18" fill="#02275D" mask="url(#mask-2)"
                                     points="70.4982564 214.256055 76.4469744 214.256055 76.4469744 194.913495 70.4982564 194.913495"></polygon>
                            <polygon id="Fill-19" fill="#021D46" mask="url(#mask-2)"
                                     points="64.5495385 214.256055 70.4982564 214.256055 70.4982564 194.913495 64.5495385 194.913495"></polygon>
                            <polygon id="Fill-20" fill="#26B5DB" mask="url(#mask-2)"
                                     points="70.4982564 203.096886 74.2162051 203.096886 74.2162051 197.145329 70.4982564 197.145329"></polygon>
                            <polygon id="Fill-21" fill="#1C88A4" mask="url(#mask-2)"
                                     points="66.7803077 203.096886 70.4982564 203.096886 70.4982564 197.145329 66.7803077 197.145329"></polygon>
                            <polygon id="Fill-22" fill="#26B5DB" mask="url(#mask-2)"
                                     points="83.8828718 174.82699 89.8315897 174.82699 89.8315897 159.948097 83.8828718 159.948097"></polygon>
                            <polygon id="Fill-23" fill="#1C88A4" mask="url(#mask-2)"
                                     points="51.1649231 174.82699 57.113641 174.82699 57.113641 159.948097 51.1649231 159.948097"></polygon>
                            <path d="M0,108.615917 L37.5193077,108.615917 C37.5193077,108.615917 36.3347692,103.275138 30.6998462,103.275138 C30.6998462,103.275138 28.8683846,99.9288754 24.923641,99.9288754 C20.979641,99.9288754 20.1341795,102.624931 20.1341795,102.624931 C20.1341795,102.624931 16.3307179,101.083478 12.9496154,102.069948 C9.56851282,103.056419 7.03287179,106.021038 7.03287179,106.021038 C7.03287179,106.021038 5.62376923,105.245848 3.22866667,105.809758 C0.834307692,106.373668 0,108.615917 0,108.615917"
                                  id="Fill-24" fill="#FFFFFF" mask="url(#mask-2)"></path>
                        </g>
                        <g id="solar-panel"
                           transform="translate(99.288026, 38.735122) rotate(1.200000) translate(-99.288026, -38.735122) translate(63.788026, 0.735122)">
                            <g id="Group-44"
                               transform="translate(35.213205, 37.794938) rotate(50.000000) translate(-35.213205, -37.794938) translate(-1.286795, 22.794938)">
                                <polygon id="Fill-7" fill="#7A7A52"
                                         points="27.8999355 14.851884 27.8999355 14.6810607 27.8999355 14.851884 26.4470333 14.851884 26.4470333 15.7769199 35.8908976 15.7769199 35.8908976 14.851884"></polygon>
                                <polygon id="Fill-9" fill="#3A3A1B"
                                         points="43.8818596 14.851884 43.8818596 14.5435387 44.6083107 14.5435387 44.6083107 14.851884 46.0612129 14.851884 46.0612129 15.7769199 35.8908976 15.7769199 35.8908976 14.851884"></polygon>
                                <polygon id="Fill-11" fill="#7A7A52"
                                         points="27.8999355 17.9353372 27.8999355 17.3695235 27.8999355 17.9353372 26.4470333 17.9353372 26.4470333 18.8603731 35.8908976 18.8603731 35.8908976 17.9353372"></polygon>
                                <polygon id="Fill-13" fill="#3A3A1B"
                                         points="43.8818596 17.9353372 43.8818596 17.3186465 44.6083107 17.3186465 44.6083107 17.9353372 46.0612129 17.9353372 46.0612129 18.8603731 35.8908976 18.8603731 35.8908976 17.9353372"></polygon>
                                <g id="Group-17" transform="translate(0.000000, 0.000000)">
                                    <mask id="mask-4" fill="white">
                                        <use xlink:href="#path-3"></use>
                                    </mask>
                                    <g id="Clip-16"></g>
                                    <polygon id="Fill-15" fill="#778E95" mask="url(#mask-4)"
                                             points="72.2392414 22.5605169 0.000217935328 22.5605169 6.55425972 0.0513086611 65.6851996 0.0513086611"></polygon>
                                </g>
                                <polygon id="Fill-18" fill="#FFFFFF"
                                         points="71.049605 21.9438263 1.18970896 21.9438263 7.74375075 0.667999299 64.4955633 0.667999299"></polygon>
                                <polygon id="Fill-20" fill="#021D46"
                                         points="17.7164714 15.1602293 3.15621208 15.1602293 0.96369947 21.964796 15.7426206 21.964796"></polygon>
                                <polygon id="Fill-22" fill="#021D46"
                                         points="35.8908976 15.1602293 18.6558453 15.1602293 16.8312569 21.9597359 36.0320859 21.9597359"></polygon>
                                <polygon id="Fill-24" fill="#1C88A4"
                                         points="53.5229553 15.1602293 36.6177119 15.1602293 36.7272394 21.9507544 55.598986 21.9507544"></polygon>
                                <polygon id="Fill-26" fill="#1C88A4"
                                         points="69.0050144 15.1681207 54.4622566 15.1602293 56.4686042 21.940324 71.0288635 21.940324"></polygon>
                                <polygon id="Fill-28" fill="#021D46"
                                         points="20.0078954 7.47910092 5.55897667 7.47910092 3.45122214 14.5178233 18.0564299 14.4812143"></polygon>
                                <polygon id="Fill-30" fill="#021D46"
                                         points="35.7791016 7.39743353 20.8442989 7.39743353 18.8928334 14.3998493 35.7791016 14.3998493"></polygon>
                                <polygon id="Fill-32" fill="#1C88A4"
                                         points="50.9980818 7.30394938 36.3898451 7.30394938 36.3898451 14.3061633 52.9495473 14.3061633"></polygon>
                                <polygon id="Fill-34" fill="#1C88A4"
                                         points="66.5190914 7.26399194 51.973904 7.19504147 53.9253695 14.1971548 68.6868257 14.2661053"></polygon>
                                <polygon id="Fill-36" fill="#021D46"
                                         points="21.7855374 0.651280418 7.63721145 0.589333769 5.77030242 6.79732132 20.1314056 6.84600423"></polygon>
                                <polygon id="Fill-38" fill="#021D46"
                                         points="35.7427064 0.661808926 22.6903244 0.685365854 21.036955 6.82790658 35.8391967 6.82790658"></polygon>
                                <polygon id="Fill-40" fill="#1C88A4"
                                         points="49.1368792 0.662051856 36.5347088 0.647151379 36.5337463 6.81058698 51.0123207 6.81058698"></polygon>
                                <polygon id="Fill-42" fill="#1C88A4"
                                         points="64.545747 0.647748994 49.8671442 0.637745338 51.9198914 6.79885509 66.3978109 6.79479692"></polygon>
                            </g>
                        </g>
                    </g>
                    <g id="sun" transform="translate(661.000000, 0.000000)">
                        <mask id="mask-6" fill="white">
                            <use xlink:href="#path-5"></use>
                        </mask>
                        <g id="Clip-2"></g>
                        <path d="M2.8321,0 C1.0001,5 0.0001,10.557 0.0001,16.297 C0.0001,43.056 21.6931,64.721 48.4521,64.721 C75.2121,64.721 96.9051,43.07 96.9051,16.311 C96.9051,10.572 95.9041,5 94.0731,0 L2.8321,0 Z"
                              id="Fill-1" fill="#EFE79C" mask="url(#mask-6)"></path>
                    </g>
                    <g id="clouds" transform="translate(0.000000, 65.000000)">
                        <path d="M721,66.03 L771.457,66.03 C771.457,66.03 769.864,58.616 762.286,58.616 C762.286,58.616 759.823,54 754.518,54 C749.214,54 748.077,57.565 748.077,57.565 C748.077,57.565 742.962,55.464 738.415,56.79 C733.868,58.117 730.458,62.087 730.458,62.087 C730.458,62.087 728.563,61.272 725.342,62.03 C722.122,62.788 721,66.03 721,66.03"
                              id="Fill-1" fill="#FFFFFF"></path>
                        <path d="M0,19.03 L77,19.03 C77,19.03 74.5689993,7.71585132 63.0045782,7.71585132 C63.0045782,7.71585132 59.2459124,0.671595814 51.1502071,0.671595814 C43.0560279,0.671595814 41.3209069,6.11197079 41.3209069,6.11197079 C41.3209069,6.11197079 33.5151515,2.90573578 26.5761936,4.92928058 C19.6372357,6.95435143 14.4333987,13.0127774 14.4333987,13.0127774 C14.4333987,13.0127774 11.5415304,11.7690451 6.62611729,12.9257925 C1.71223022,14.0825398 0,19.03 0,19.03"
                              id="Fill-1-Copy" fill="#FFFFFF"></path>
                        <g id="Group-5" transform="translate(765.000000, 111.029800)">
                            <mask id="mask-8" fill="white">
                                <use xlink:href="#path-7"></use>
                            </mask>
                            <g id="Clip-4"></g>
                            <path d="M77.2744,18 L0.0794,18 C0.0794,18 2.5164,6.928 14.1104,6.928 C14.1104,6.928 17.8784,0.001 25.9944,0.001 C34.1094,0.001 35.8484,5.524 35.8484,5.524 C35.8484,5.524 43.6744,2.343 50.6314,4.372 C57.5874,6.401 62.8044,12.491 62.8044,12.491 C62.8044,12.491 65.7034,10.984 70.6304,12.143 C75.5584,13.302 77.2744,18 77.2744,18"
                                  id="Fill-3" fill="#FFFFFF" mask="url(#mask-8)"></path>
                        </g>
                    </g>
                    <g id="power-pole" transform="translate(800.000000, 238.000000)">
                        <polygon id="Fill-1" fill="#BFBF96"
                                 points="13.887 72.0003 15.887 72.0003 15.887 0.0003 13.887 0.0003"></polygon>
                        <polygon id="Fill-2" fill="#F9FEFC"
                                 points="11.886 72.0003 13.887 72.0003 13.887 0.0003 11.886 0.0003"></polygon>
                        <g id="Group-16" transform="translate(0.000000, 5.398300)">
                            <g id="Group-7" transform="translate(13.000000, 66.000000)">
                                <mask id="mask-10" fill="white">
                                    <use xlink:href="#path-9"></use>
                                </mask>
                                <g id="Clip-6"></g>
                            </g>
                            <polygon id="Fill-8" fill="#7A7A52"
                                     points="2.8862 2.6017 2.8862 0.6017 1.8862 0.6017 1.8862 2.6017 0.8862 2.6017 0.8862 5.6017 13.8862 5.6017 13.8862 2.6017"></polygon>
                            <polygon id="Fill-10" fill="#3A3A1B"
                                     points="25.8863 2.6017 25.8863 0.6017 26.8863 0.6017 26.8863 2.6017 27.8863 2.6017 27.8863 5.6017 13.8863 5.6017 13.8863 2.6017"></polygon>
                            <polygon id="Fill-12" fill="#7A7A52"
                                     points="2.8862 11.6017 2.8862 10.6017 1.8862 10.6017 1.8862 11.6017 0.8862 11.6017 0.8862 15.6017 13.8862 15.6017 13.8862 11.6017"></polygon>
                            <polygon id="Fill-14" fill="#3A3A1B"
                                     points="25.8863 11.6017 25.8863 10.6017 26.8863 10.6017 26.8863 11.6017 27.8863 11.6017 27.8863 15.6017 13.8863 15.6017 13.8863 11.6017"></polygon>
                        </g>
                    </g>
                    <g id="power-pole-copy" transform="translate(670.000000, 238.000000)">
                        <polygon id="Fill-1" fill="#BFBF96"
                                 points="13.887 72.0003 15.887 72.0003 15.887 0.0003 13.887 0.0003"></polygon>
                        <polygon id="Fill-2" fill="#F9FEFC"
                                 points="11.886 72.0003 13.887 72.0003 13.887 0.0003 11.886 0.0003"></polygon>
                        <g id="Group-16" transform="translate(0.000000, 5.398300)">
                            <g id="Group-7" transform="translate(13.000000, 66.000000)">
                                <mask id="mask-12" fill="white">
                                    <use xlink:href="#path-11"></use>
                                </mask>
                                <g id="Clip-6"></g>
                            </g>
                            <polygon id="Fill-8" fill="#7A7A52"
                                     points="2.8862 2.6017 2.8862 0.6017 1.8862 0.6017 1.8862 2.6017 0.8862 2.6017 0.8862 5.6017 13.8862 5.6017 13.8862 2.6017"></polygon>
                            <polygon id="Fill-10" fill="#3A3A1B"
                                     points="25.8863 2.6017 25.8863 0.6017 26.8863 0.6017 26.8863 2.6017 27.8863 2.6017 27.8863 5.6017 13.8863 5.6017 13.8863 2.6017"></polygon>
                            <polygon id="Fill-12" fill="#7A7A52"
                                     points="2.8862 11.6017 2.8862 10.6017 1.8862 10.6017 1.8862 11.6017 0.8862 11.6017 0.8862 15.6017 13.8862 15.6017 13.8862 11.6017"></polygon>
                            <polygon id="Fill-14" fill="#3A3A1B"
                                     points="25.8863 11.6017 25.8863 10.6017 26.8863 10.6017 26.8863 11.6017 27.8863 11.6017 27.8863 15.6017 13.8863 15.6017 13.8863 11.6017"></polygon>
                        </g>
                    </g>
                </g>
            </g>
        </g>
    </g>

</svg>