<svg xmlns="http://www.w3.org/2000/svg" viewBox="0 0 26.02 26.02"><defs><style>.cls-1{fill:#efe79c;}.cls-2{fill:#6d6a5c;}</style></defs><title>Info</title><g id="Layer_2" data-name="Layer 2"><g id="Layer_1-2" data-name="Layer 1"><circle class="cls-1" cx="13.01" cy="13.01" r="13.01"/><path class="cls-2" d="M11.89,8.68a1,1,0,0,1,.29-.76A1.12,1.12,0,0,1,13,7.64a1.13,1.13,0,0,1,.81.28,1,1,0,0,1,.29.76,1,1,0,0,1-.29.76,1.12,1.12,0,0,1-.81.28,1.12,1.12,0,0,1-.81-.28A1,1,0,0,1,11.89,8.68ZM12.1,11h1.78v7.35H12.1Z"/></g></g></svg>