<?xml version="1.0" encoding="UTF-8"?>
<svg width="1024px" height="380px" viewBox="0 0 1024 380" version="1.1" xmlns="http://www.w3.org/2000/svg"
     xmlns:xlink="http://www.w3.org/1999/xlink">
    <!-- Generator: Sketch 42 (36781) - http://www.bohemiancoding.com/sketch -->
    <title>login_illustration</title>
    <desc>Created with Sketch.</desc>
    <defs>
        <polygon id="path-1" points="0 697 1026 697 1026 0 0 0"></polygon>
        <polygon id="path-3"
                 points="0 287.807069 155.552815 287.807069 155.552815 0.615587342 0 0.615587342"></polygon>
        <polygon id="path-5"
                 points="97.1870278 30.305217 97.1870278 0.0689221844 0.00029320007 0.0689221844 0.00029320007 30.305217"></polygon>
    </defs>
    <g id="Welcome" stroke="none" stroke-width="1" fill="none" fill-rule="evenodd">
        <g id="Login" transform="translate(0.000000, -62.000000)">
            <g id="login_illustration" transform="translate(0.000000, 62.000000)">
                <polygon id="Fill-1" fill="#56EDA8"
                         points="0 697 1026 697 1026 239.343391 0 239.343391"></polygon>
                <polygon id="Fill-2" fill="#26B5DB" points="0 239.343391 1026 239.343391 1026 0 0 0"></polygon>
                <g id="Group-74">
                    <mask id="mask-2" fill="white">
                        <use xlink:href="#path-1"></use>
                    </mask>
                    <g id="Clip-10"></g>
                    <path d="M336.47149,116.166667 L259.125718,116.166667 C259.125718,116.166667 261.567478,104.813378 273.184123,104.813378 C273.184123,104.813378 276.959482,97.7452371 285.091334,97.7452371 C293.222183,97.7452371 294.96458,103.209076 294.96458,103.209076 C294.96458,103.209076 302.805865,99.9904583 309.776453,102.022374 C316.746039,104.054289 321.973228,110.137016 321.973228,110.137016 C321.973228,110.137016 324.87789,108.884218 329.814513,110.044884 C334.752138,111.205549 336.47149,116.166667 336.47149,116.166667"
                          id="Fill-26" fill="#FFFFFF" mask="url(#mask-2)"></path>
                    <path d="M135.036729,179.257184 L57.690958,179.257184 C57.690958,179.257184 60.1327178,168.121207 71.7493623,168.121207 C71.7493623,168.121207 75.5247217,161.161221 83.6565732,161.161221 C91.7874229,161.161221 93.5298193,166.680139 93.5298193,166.680139 C93.5298193,166.680139 101.371104,163.48856 108.341692,165.520476 C115.311278,167.552391 120.538468,173.649138 120.538468,173.649138 C120.538468,173.649138 123.44313,172.185037 128.379753,173.345703 C133.317378,174.507369 135.036729,179.257184 135.036729,179.257184"
                          id="Fill-27" fill="#FFFFFF" mask="url(#mask-2)"></path>
                    <path d="M418.007229,198.284483 L468.562778,198.284483 C468.562778,198.284483 466.966666,191.095168 459.373866,191.095168 C459.373866,191.095168 456.906055,186.590705 451.590694,186.590705 C446.276334,186.590705 445.137114,190.219912 445.137114,190.219912 C445.137114,190.219912 440.012123,188.144935 435.456243,189.472841 C430.900362,190.800746 427.483702,194.791471 427.483702,194.791471 C427.483702,194.791471 425.585,193.747974 422.357709,194.507063 C419.13142,195.266152 418.007229,198.284483 418.007229,198.284483"
                          id="Fill-28" fill="#FFFFFF" mask="url(#mask-2)"></path>
                    <path d="M792.025008,81.1163793 L842.580557,81.1163793 C842.580557,81.1163793 840.984446,73.691727 833.391645,73.691727 C833.391645,73.691727 830.923835,69.0690948 825.608473,69.0690948 C820.294114,69.0690948 819.154893,72.639217 819.154893,72.639217 C819.154893,72.639217 814.029903,70.5351983 809.474022,71.8631034 C804.918141,73.1920101 801.501481,77.1677141 801.501481,77.1677141 C801.501481,77.1677141 799.60278,76.3515431 796.375489,77.1106322 C793.1492,77.8697213 792.025008,81.1163793 792.025008,81.1163793"
                          id="Fill-29" fill="#FFFFFF" mask="url(#mask-2)"></path>
                    <path d="M913.536373,144.206897 L836.190601,144.206897 C836.190601,144.206897 838.632361,133.118989 850.249005,133.118989 C850.249005,133.118989 854.024365,126.182036 862.155214,126.182036 C870.287066,126.182036 872.029463,131.712971 872.029463,131.712971 C872.029463,131.712971 879.870748,128.527401 886.841336,130.559316 C893.810921,132.591231 899.038111,138.689981 899.038111,138.689981 C899.038111,138.689981 901.942773,137.180816 906.879396,138.341481 C911.817021,139.502147 913.536373,144.206897 913.536373,144.206897"
                          id="Fill-30" fill="#FFFFFF" mask="url(#mask-2)"></path>
                    <path d="M640.269489,0 C638.433911,5.00718391 637.431957,10.5721681 637.431957,16.3204152 C637.431957,43.1178621 659.167327,64.8139899 685.97859,64.8139899 C712.790856,64.8139899 734.526225,43.1318822 734.526225,16.3344353 C734.526225,10.5871897 733.52327,5.00718391 731.688694,0 L640.269489,0 Z"
                          id="Fill-31" fill="#EFE79C" mask="url(#mask-2)"></path>
                    <polygon id="Fill-32" fill="#41B27E" mask="url(#mask-2)"
                             points="454.886719 340.444142 285.556641 317.196789 454.886719 300.127299"></polygon>
                    <polygon id="Fill-33" fill="#41B27E" mask="url(#mask-2)"
                             points="208.970381 289.756694 119 284.328907 207.040619 283"></polygon>
                    <polygon id="Fill-33-Copy" fill="#41B27E" mask="url(#mask-2)"
                             points="751.970381 289.756694 662 284.328907 750.040619 283"></polygon>
                    <polygon id="Fill-34" fill="#41B27E" mask="url(#mask-2)"
                             points="304.970381 289.758131 215 284.330343 303.040619 282"></polygon>
                    <polygon id="Fill-34-Copy" fill="#41B27E" mask="url(#mask-2)"
                             points="846.970381 289.758131 757 284.330343 845.040619 282"></polygon>
                    <polygon id="Fill-36" fill="#BFBF96" mask="url(#mask-2)"
                             points="209 275.103448 211.003906 275.103448 211.003906 203 209 203"></polygon>
                    <polygon id="Fill-36-Copy" fill="#BFBF96" mask="url(#mask-2)"
                             points="752 275.103448 754.003906 275.103448 754.003906 203 752 203"></polygon>
                    <polygon id="Fill-37" fill="#F9FEFC" mask="url(#mask-2)"
                             points="207 275.103448 209.003906 275.103448 209.003906 203 207 203"></polygon>
                    <polygon id="Fill-37-Copy" fill="#F9FEFC" mask="url(#mask-2)"
                             points="750 275.103448 752.003906 275.103448 752.003906 203 750 203"></polygon>
                    <path d="M192,284.938259 C192,284.938259 196.895543,275 208.91898,275 L208.91898,289.95746 L192,284.938259 Z"
                          id="Fill-38" fill="#7A7A52" mask="url(#mask-2)"></path>
                    <path d="M735,284.938259 C735,284.938259 739.895543,275 751.91898,275 L751.91898,289.95746 L735,284.938259 Z"
                          id="Fill-38-Copy" fill="#7A7A52" mask="url(#mask-2)"></path>
                    <path d="M225.91898,284.938259 C225.91898,284.938259 222.025391,275 209,275 L209,289.95746 L225.91898,284.938259 Z"
                          id="Fill-39" fill="#3A3A1B" mask="url(#mask-2)"></path>
                    <path d="M768.91898,284.938259 C768.91898,284.938259 765.025391,275 752,275 L752,289.95746 L768.91898,284.938259 Z"
                          id="Fill-39-Copy" fill="#3A3A1B" mask="url(#mask-2)"></path>
                    <polygon id="Fill-40" fill="#7A7A52" mask="url(#mask-2)"
                             points="198.003906 211.002874 198.003906 209 197.001953 209 197.001953 211.002874 196 211.002874 196 214.007184 209.025391 214.007184 209.025391 211.002874"></polygon>
                    <polygon id="Fill-40-Copy" fill="#7A7A52" mask="url(#mask-2)"
                             points="741.003906 211.002874 741.003906 209 740.001953 209 740.001953 211.002874 739 211.002874 739 214.007184 752.025391 214.007184 752.025391 211.002874"></polygon>
                    <polygon id="Fill-41" fill="#3A3A1B" mask="url(#mask-2)"
                             points="221.023438 211.002874 221.023438 209 222.025391 209 222.025391 211.002874 223.027344 211.002874 223.027344 214.007184 209 214.007184 209 211.002874"></polygon>
                    <polygon id="Fill-41-Copy" fill="#3A3A1B" mask="url(#mask-2)"
                             points="764.023438 211.002874 764.023438 209 765.025391 209 765.025391 211.002874 766.027344 211.002874 766.027344 214.007184 752 214.007184 752 211.002874"></polygon>
                    <polygon id="Fill-42" fill="#7A7A52" mask="url(#mask-2)"
                             points="198.003906 220.001437 198.003906 219 197.001953 219 197.001953 220.001437 196 220.001437 196 224.007184 209.025391 224.007184 209.025391 220.001437"></polygon>
                    <polygon id="Fill-42-Copy" fill="#7A7A52" mask="url(#mask-2)"
                             points="741.003906 220.001437 741.003906 219 740.001953 219 740.001953 220.001437 739 220.001437 739 224.007184 752.025391 224.007184 752.025391 220.001437"></polygon>
                    <polygon id="Fill-43" fill="#3A3A1B" mask="url(#mask-2)"
                             points="221.023438 220.001437 221.023438 219 222.025391 219 222.025391 220.001437 223.027344 220.001437 223.027344 224.007184 209 224.007184 209 220.001437"></polygon>
                    <polygon id="Fill-43-Copy" fill="#3A3A1B" mask="url(#mask-2)"
                             points="764.023438 220.001437 764.023438 219 765.025391 219 765.025391 220.001437 766.027344 220.001437 766.027344 224.007184 752 224.007184 752 220.001437"></polygon>
                    <polygon id="Fill-44" fill="#BFBF96" mask="url(#mask-2)"
                             points="303 275.103448 305.003906 275.103448 305.003906 203 303 203"></polygon>
                    <polygon id="Fill-44-Copy" fill="#BFBF96" mask="url(#mask-2)"
                             points="845 275.103448 847.003906 275.103448 847.003906 203 845 203"></polygon>
                    <polygon id="Fill-45" fill="#F9FEFC" mask="url(#mask-2)"
                             points="301 275.103448 303.003906 275.103448 303.003906 203 301 203"></polygon>
                    <polygon id="Fill-45-Copy" fill="#F9FEFC" mask="url(#mask-2)"
                             points="843 275.103448 845.003906 275.103448 845.003906 203 843 203"></polygon>
                    <path d="M286,284.938259 C286,284.938259 291.897496,275 302.91898,275 L302.91898,289.95746 L286,284.938259 Z"
                          id="Fill-46" fill="#7A7A52" mask="url(#mask-2)"></path>
                    <path d="M828,284.938259 C828,284.938259 833.897496,275 844.91898,275 L844.91898,289.95746 L828,284.938259 Z"
                          id="Fill-46-Copy" fill="#7A7A52" mask="url(#mask-2)"></path>
                    <path d="M319.91898,284.938259 C319.91898,284.938259 316.025391,275 303,275 L303,289.95746 L319.91898,284.938259 Z"
                          id="Fill-47" fill="#3A3A1B" mask="url(#mask-2)"></path>
                    <path d="M861.91898,284.938259 C861.91898,284.938259 858.025391,275 845,275 L845,289.95746 L861.91898,284.938259 Z"
                          id="Fill-47-Copy" fill="#3A3A1B" mask="url(#mask-2)"></path>
                    <polygon id="Fill-48" fill="#7A7A52" mask="url(#mask-2)"
                             points="292.003906 211.027909 292.003906 209 292.003906 211.027909 290 211.027909 290 214.03222 303.025391 214.03222 303.025391 211.027909"></polygon>
                    <polygon id="Fill-48-Copy" fill="#7A7A52" mask="url(#mask-2)"
                             points="834.003906 211.027909 834.003906 209 834.003906 211.027909 832 211.027909 832 214.03222 845.025391 214.03222 845.025391 211.027909"></polygon>
                    <polygon id="Fill-49" fill="#3A3A1B" mask="url(#mask-2)"
                             points="315.023438 211.002874 315.023438 209 316.025391 209 316.025391 211.002874 317.027344 211.002874 317.027344 214.007184 303 214.007184 303 211.002874"></polygon>
                    <polygon id="Fill-49-Copy" fill="#3A3A1B" mask="url(#mask-2)"
                             points="857.023438 211.002874 857.023438 209 858.025391 209 858.025391 211.002874 859.027344 211.002874 859.027344 214.007184 845 214.007184 845 211.002874"></polygon>
                    <polygon id="Fill-50" fill="#7A7A52" mask="url(#mask-2)"
                             points="292.003906 220.33792 292.003906 219 292.003906 220.33792 290 220.33792 290 224.343667 303.025391 224.343667 303.025391 220.33792"></polygon>
                    <polygon id="Fill-50-Copy" fill="#7A7A52" mask="url(#mask-2)"
                             points="834.003906 220.33792 834.003906 219 834.003906 220.33792 832 220.33792 832 224.343667 845.025391 224.343667 845.025391 220.33792"></polygon>
                    <polygon id="Fill-51" fill="#3A3A1B" mask="url(#mask-2)"
                             points="315.023438 220.001437 315.023438 219 316.025391 219 316.025391 220.001437 317.027344 220.001437 317.027344 224.007184 303 224.007184 303 220.001437"></polygon>
                    <polygon id="Fill-51-Copy" fill="#3A3A1B" mask="url(#mask-2)"
                             points="857.023438 220.001437 857.023438 219 858.025391 219 858.025391 220.001437 859.027344 220.001437 859.027344 224.007184 845 224.007184 845 220.001437"></polygon>
                </g>
                <g id="house-copy" transform="translate(419.000000, 31.000000)">
                    <polygon id="Fill-1" fill="#DEDCD2"
                             points="62.3874704 84.0488585 65.0745209 84.0488585 66.4432618 307.312278 153.117479 307.312278 167.702707 277.549995 170.864499 70.8889866 173.549549 70.8889866 123.13422 8.83227987"></polygon>
                    <polygon id="Fill-1" fill="#DEDCD2"
                             points="34.1350455 96.1384287 36.822096 96.1384287 36.822096 307.99641 152.867465 307.99641 152.867465 96.1384287 155.552515 96.1384287 94.8817951 20.9218501"></polygon>
                    <polygon id="Fill-2" fill="#F9F7E8"
                             points="94.8448806 20.8058278 94.8448806 307.99631 152.867565 307.99631 152.867565 96.1383288 155.552615 96.1383288 94.8818951 20.8398051"></polygon>
                    <g id="Group-25" transform="translate(0.000000, 20.189741)">
                        <path d="M109.698988,60.2290255 C109.698988,68.4245317 103.048388,75.0680782 94.8441804,75.0680782 C86.6399728,75.0680782 79.9883723,68.4245317 79.9883723,60.2290255 C79.9883723,52.0335194 86.6399728,45.3899729 94.8441804,45.3899729 C103.048388,45.3899729 109.698988,52.0335194 109.698988,60.2290255 Z"
                              id="Fill-3" fill="#26B5DB"></path>
                        <path d="M94.8446806,45.3896731 C86.8415517,45.3896731 79.9898729,52.0332196 79.9898729,60.2287257 C79.9898729,68.4242319 86.8415517,75.0687777 94.8446806,75.0687777 L94.8446806,45.3896731 Z"
                              id="Fill-5" fill="#1C88A4"></path>
                        <mask id="mask-4" fill="white">
                            <use xlink:href="#path-3"></use>
                        </mask>
                        <g id="Clip-8"></g>
                        <polygon id="Fill-7" fill="#26B5DB" mask="url(#mask-4)"
                                 points="94.8450807 134.909564 98.8466452 134.909564 98.8466452 114.922962 94.8450807 114.922962"></polygon>
                        <polygon id="Fill-9" fill="#26B5DB" mask="url(#mask-4)"
                                 points="112.852121 134.909564 120.85525 134.909564 120.85525 114.922962 112.852121 114.922962"></polygon>
                        <polygon id="Fill-10" fill="#1C88A4" mask="url(#mask-4)"
                                 points="68.8349118 134.909564 76.8380407 134.909564 76.8380407 114.922962 68.8349118 114.922962"></polygon>
                        <polygon id="Fill-11" fill="#26B5DB" mask="url(#mask-4)"
                                 points="94.8450807 183.876738 98.8466452 183.876738 98.8466452 163.890136 94.8450807 163.890136"></polygon>
                        <polygon id="Fill-12" fill="#26B5DB" mask="url(#mask-4)"
                                 points="112.852121 183.876738 120.85525 183.876738 120.85525 163.890136 112.852121 163.890136"></polygon>
                        <polygon id="Fill-13" fill="#1C88A4" mask="url(#mask-4)"
                                 points="68.8349118 183.876738 76.8380407 183.876738 76.8380407 163.890136 68.8349118 163.890136"></polygon>
                        <polygon id="Fill-14" fill="#26B5DB" mask="url(#mask-4)"
                                 points="94.8450807 234.842574 98.8466452 234.842574 98.8466452 214.855972 94.8450807 214.855972"></polygon>
                        <polygon id="Fill-15" fill="#1C88A4" mask="url(#mask-4)"
                                 points="90.8435163 134.909564 94.8450807 134.909564 94.8450807 114.922962 90.8435163 114.922962"></polygon>
                        <polygon id="Fill-16" fill="#1C88A4" mask="url(#mask-4)"
                                 points="90.8435163 183.876738 94.8450807 183.876738 94.8450807 163.890136 90.8435163 163.890136"></polygon>
                        <polygon id="Fill-17" fill="#1C88A4" mask="url(#mask-4)"
                                 points="90.8435163 234.842574 94.8450807 234.842574 94.8450807 214.855972 90.8435163 214.855972"></polygon>
                        <polygon id="Fill-18" fill="#02275D" mask="url(#mask-4)"
                                 points="94.8450807 287.807069 102.84821 287.807069 102.84821 261.824486 94.8450807 261.824486"></polygon>
                        <polygon id="Fill-19" fill="#021D46" mask="url(#mask-4)"
                                 points="86.8419518 287.807069 94.8450807 287.807069 94.8450807 261.824486 86.8419518 261.824486"></polygon>
                        <polygon id="Fill-20" fill="#26B5DB" mask="url(#mask-4)"
                                 points="94.8450807 272.817117 99.8470363 272.817117 99.8470363 264.822477 94.8450807 264.822477"></polygon>
                        <polygon id="Fill-21" fill="#1C88A4" mask="url(#mask-4)"
                                 points="89.8431252 272.817117 94.8450807 272.817117 94.8450807 264.822477 89.8431252 264.822477"></polygon>
                        <polygon id="Fill-22" fill="#26B5DB" mask="url(#mask-4)"
                                 points="112.852121 234.842574 120.85525 234.842574 120.85525 214.855972 112.852121 214.855972"></polygon>
                        <polygon id="Fill-23" fill="#1C88A4" mask="url(#mask-4)"
                                 points="68.8349118 234.842574 76.8380407 234.842574 76.8380407 214.855972 68.8349118 214.855972"></polygon>
                        <path d="M0,145.902195 L50.4767344,145.902195 C50.4767344,145.902195 48.8831114,138.728004 41.3021475,138.728004 C41.3021475,138.728004 38.8381842,134.233017 33.5311094,134.233017 C28.2250349,134.233017 27.0875902,137.854589 27.0875902,137.854589 C27.0875902,137.854589 21.9705896,135.783977 17.4218112,137.109089 C12.8730329,138.434201 9.46169916,142.416531 9.46169916,142.416531 C9.46169916,142.416531 7.56595799,141.375229 4.34369822,142.132721 C1.12243883,142.890214 0,145.902195 0,145.902195"
                              id="Fill-24" fill="#FFFFFF" mask="url(#mask-4)"></path>
                    </g>
                    <g id="solar-panel"
                       transform="translate(133.327007, 52.483036) rotate(1.200000) translate(-133.327007, -52.483036) translate(85.827007, 1.983036)">
                        <g id="Group-44"
                           transform="translate(47.423053, 50.592081) rotate(50.000000) translate(-47.423053, -50.592081) translate(-1.576947, 30.592081)">
                            <polygon id="Fill-7" fill="#7A7A52"
                                     points="37.5352777 19.9503215 37.5352777 19.720857 37.5352777 19.9503215 35.5806106 19.9503215 35.5806106 21.192909 48.285947 21.192909 48.285947 19.9503215"></polygon>
                            <polygon id="Fill-9" fill="#3A3A1B"
                                     points="59.0366163 19.9503215 59.0366163 19.5361257 60.0139499 19.5361257 60.0139499 19.9503215 61.9686171 19.9503215 61.9686171 21.192909 48.285947 21.192909 48.285947 19.9503215"></polygon>
                            <polygon id="Fill-11" fill="#7A7A52"
                                     points="37.5352777 24.0922797 37.5352777 23.3322304 37.5352777 24.0922797 35.5806106 24.0922797 35.5806106 25.3348672 48.285947 25.3348672 48.285947 24.0922797"></polygon>
                            <polygon id="Fill-13" fill="#3A3A1B"
                                     points="59.0366163 24.0922797 59.0366163 23.2638881 60.0139499 23.2638881 60.0139499 24.0922797 61.9686171 24.0922797 61.9686171 25.3348672 48.285947 25.3348672 48.285947 24.0922797"></polygon>
                            <g id="Group-17" transform="translate(0.000000, 0.000000)">
                                <mask id="mask-6" fill="white">
                                    <use xlink:href="#path-5"></use>
                                </mask>
                                <g id="Clip-16"></g>
                                <polygon id="Fill-15" fill="#778E95" mask="url(#mask-6)"
                                         points="97.187321 30.305217 0.00029320007 30.305217 8.8177967 0.0689221844 88.3698175 0.0689221844"></polygon>
                            </g>
                            <polygon id="Fill-18" fill="#FFFFFF"
                                     points="95.5868396 29.4768254 1.60057919 29.4768254 10.4180827 0.897313823 86.7693361 0.897313823"></polygon>
                            <polygon id="Fill-20" fill="#021D46"
                                     points="23.834918 20.3645173 4.24622117 20.3645173 1.29651652 29.5049937 21.1793907 29.5049937"></polygon>
                            <polygon id="Fill-22" fill="#021D46"
                                     points="48.285947 20.3645173 25.098708 20.3645173 22.6439916 29.4981964 48.4758952 29.4981964"></polygon>
                            <polygon id="Fill-24" fill="#1C88A4"
                                     points="72.0072989 20.3645173 49.2637693 20.3645173 49.4111226 29.4861318 74.8002941 29.4861318"></polygon>
                            <polygon id="Fill-26" fill="#1C88A4"
                                     points="92.8361423 20.3751178 73.2709912 20.3645173 75.9702381 29.4721208 95.5589349 29.4721208"></polygon>
                            <polygon id="Fill-28" fill="#021D46"
                                     points="26.9176935 10.0465684 7.47878909 10.0465684 4.64311402 19.5015826 24.2922824 19.4524063"></polygon>
                            <polygon id="Fill-30" fill="#021D46"
                                     points="48.1355419 9.93686576 28.0429519 9.93686576 25.4175408 19.3431098 48.1355419 19.3431098"></polygon>
                            <polygon id="Fill-32" fill="#1C88A4"
                                     points="68.6104513 9.81128985 48.9572079 9.81128985 48.9572079 19.2172628 71.2358624 19.2172628"></polygon>
                            <polygon id="Fill-34" fill="#1C88A4"
                                     points="89.4916969 9.7576156 69.9232771 9.66499543 72.5486882 19.0708333 92.408066 19.1634535"></polygon>
                            <polygon id="Fill-36" fill="#021D46"
                                     points="29.3092504 0.874855592 10.2747497 0.791643551 7.76309695 9.13074369 27.0838583 9.19613874"></polygon>
                            <polygon id="Fill-38" fill="#021D46"
                                     points="48.0865776 0.888998385 30.5265089 0.920642066 28.3021425 9.17182843 48.2163911 9.17182843"></polygon>
                            <polygon id="Fill-40" fill="#1C88A4"
                                     points="66.1064758 0.88932471 49.1521008 0.869309113 49.1508059 9.14856326 68.6296076 9.14856326"></polygon>
                            <polygon id="Fill-42" fill="#1C88A4"
                                     points="86.836851 0.87011188 67.0889403 0.856674114 69.8506111 9.13280397 89.3285317 9.12735269"></polygon>
                        </g>
                    </g>
                </g>


            </g>
        </g>
    </g>
</svg>
