<?xml version="1.0" encoding="UTF-8"?>
<svg width="140px" height="96px" viewBox="0 0 140 96" version="1.1" xmlns="http://www.w3.org/2000/svg" xmlns:xlink="http://www.w3.org/1999/xlink">
    <!-- Generator: Sketch 41 (35326) - http://www.bohemiancoding.com/sketch -->
    <title>broken clouds</title>
    <desc>Created with Sketch.</desc>
    <defs></defs>
    <g id="Welcome" stroke="none" stroke-width="1" fill="none" fill-rule="evenodd">
        <g id="Weather" transform="translate(-596.000000, -101.000000)" fill="#FFFFFF">
            <g id="Weather-Section" transform="translate(-2.000000, -8.000000)">
                <g id="broken-clouds" transform="translate(598.000000, 109.000000)">
                    <g id="Cloudy">
                        <path d="M61.8497854,18.2678571 L139.851809,18.2678571 C139.851809,18.2678571 137.525034,9.213256 125.026565,12.3723726 C115.012479,-1.24684048 98.4414817,5.48427553 98.4414817,5.48427553 C96.8705344,1.22807174 84.7690618,-5.10323302 76.0881364,7.10056061 C65.8736041,6.59522076 61.8497854,18.2678571 61.8497854,18.2678571 Z" id="Cloud-2" transform="translate(100.850797, 9.133929) scale(-1, 1) translate(-100.850797, -9.133929) "></path>
                        <path d="M1,63.1976472 L138,63.1976472 C138,63.1976472 139.967697,38.7655302 111.961464,44.1612296 C94.3730776,18.6658997 65.2683633,31.2666294 65.2683633,31.2666294 C62.5092071,23.298965 41.2546079,11.4466867 26.0077369,34.2923344 C-1.20170574,34.2923344 1,63.1976472 1,63.1976472 Z" id="Cloud"></path>
                        <path d="M13,95.5024373 L126.620392,95.5024373 C126.620392,95.5024373 123.231134,82.3131982 105.025439,86.9148746 C90.4385817,67.076667 66.3007055,76.8814388 66.3007055,76.8814388 C64.0124105,70.6817081 46.3849952,61.4593149 33.7400648,79.2357745 C18.8612307,78.4996793 13,95.5024373 13,95.5024373 Z" id="Cloud" transform="translate(69.810196, 82.197647) scale(-1, 1) translate(-69.810196, -82.197647) "></path>
                    </g>
                </g>
            </g>
        </g>
    </g>
</svg>