<?xml version="1.0" encoding="UTF-8"?>
<svg width="114px" height="78px" viewBox="0 0 114 78" version="1.1" xmlns="http://www.w3.org/2000/svg" xmlns:xlink="http://www.w3.org/1999/xlink">
    <!-- Generator: Sketch 41 (35326) - http://www.bohemiancoding.com/sketch -->
    <title>shower rain</title>
    <desc>Created with Sketch.</desc>
    <defs></defs>
    <g id="Welcome" stroke="none" stroke-width="1" fill="none" fill-rule="evenodd">
        <g id="Weather" transform="translate(-964.000000, -109.000000)">
            <g id="Weather-Section" transform="translate(-2.000000, -8.000000)">
                <g id="shower-rain" transform="translate(966.000000, 117.000000)">
                    <g id="Cloudy">
                        <path d="M102,67 L108.596219,75.5804227" id="Path-2" stroke="#FFFFFF" stroke-width="3" stroke-linecap="round"></path>
                        <path d="M85,64 L91.596219,72.5804227" id="Path-2-Copy" stroke="#FFFFFF" stroke-width="3" stroke-linecap="round"></path>
                        <path d="M44,64 L50.596219,72.5804227" id="Path-2-Copy-5" stroke="#FFFFFF" stroke-width="3" stroke-linecap="round"></path>
                        <path d="M82,43 L88.596219,51.5804227" id="Path-2" stroke="#FFFFFF" stroke-width="3" stroke-linecap="round"></path>
                        <path d="M65,40 L71.596219,48.5804227" id="Path-2-Copy" stroke="#FFFFFF" stroke-width="3" stroke-linecap="round"></path>
                        <path d="M60,56 L66.596219,64.5804227" id="Path-2-Copy-2" stroke="#FFFFFF" stroke-width="3" stroke-linecap="round"></path>
                        <path d="M43,37 L49.596219,45.5804227" id="Path-2-Copy-3" stroke="#FFFFFF" stroke-width="3" stroke-linecap="round"></path>
                        <path d="M24,40 L30.596219,48.5804227" id="Path-2-Copy-5" stroke="#FFFFFF" stroke-width="3" stroke-linecap="round"></path>
                        <path d="M0,26.6095801 L113.620392,26.6095801 C113.620392,26.6095801 110.231134,13.4203411 92.0254388,18.0220174 C77.4385817,-1.81619011 53.3007055,7.98858168 53.3007055,7.98858168 C51.0124105,1.78885094 33.3849952,-7.43354225 20.7400648,10.3429173 C5.86123068,9.60682218 0,26.6095801 0,26.6095801 Z" id="Cloud" fill="#FFFFFF"></path>
                    </g>
                </g>
            </g>
        </g>
    </g>
</svg>