<?xml version="1.0" encoding="UTF-8"?>
<svg width="138px" height="94px" viewBox="0 0 138 94" version="1.1" xmlns="http://www.w3.org/2000/svg" xmlns:xlink="http://www.w3.org/1999/xlink">
    <!-- Generator: Sketch 41 (35326) - http://www.bohemiancoding.com/sketch -->
    <title>snow</title>
    <desc>Created with Sketch.</desc>
    <defs></defs>
    <g id="Welcome" stroke="none" stroke-width="1" fill="none" fill-rule="evenodd">
        <g id="Weather" transform="translate(-1348.000000, -101.000000)">
            <g id="Weather-Section" transform="translate(-2.000000, -8.000000)">
                <g id="snow" transform="translate(1350.000000, 109.000000)">
                    <path d="M0.04271795,42.1976472 L137.042718,42.1976472 C137.042718,42.1976472 139.010415,17.7655302 111.004182,23.1612296 C93.4157955,-2.33410029 64.3110813,10.2666294 64.3110813,10.2666294 C61.551925,2.298965 40.2973258,-9.55331329 25.0504548,13.2923344 C-2.15898779,13.2923344 0.04271795,42.1976472 0.04271795,42.1976472 Z" id="Cloud" fill="#FFFFFF"></path>
                    <path d="M115.254131,73.3135328 L115.863603,74.1063401" id="Path-2" stroke="#FFFFFF" stroke-width="3" stroke-linecap="round"></path>
                    <path d="M104.725439,84.567275 L105.334911,85.3600823" id="Path-2-Copy" stroke="#FFFFFF" stroke-width="3" stroke-linecap="round"></path>
                    <path d="M89.68445,84.567275 L90.2939224,85.3600823" id="Path-2-Copy-2" stroke="#FFFFFF" stroke-width="3" stroke-linecap="round"></path>
                    <path d="M68.6270656,80.0657781 L69.2365379,80.8585854" id="Path-2-Copy-3" stroke="#FFFFFF" stroke-width="3" stroke-linecap="round"></path>
                    <path d="M61.1065711,91.3195203 L61.7160435,92.1123276" id="Path-2-Copy-4" stroke="#FFFFFF" stroke-width="3" stroke-linecap="round"></path>
                    <path d="M38.5450878,84.567275 L39.1545602,85.3600823" id="Path-2-Copy-5" stroke="#FFFFFF" stroke-width="3" stroke-linecap="round"></path>
                    <path d="M98.7090433,50 L99.3185157,50.7928073" id="Path-2" stroke="#FFFFFF" stroke-width="3" stroke-linecap="round"></path>
                    <path d="M88.1803511,61.2537422 L88.7898235,62.0465495" id="Path-2-Copy" stroke="#FFFFFF" stroke-width="3" stroke-linecap="round"></path>
                    <path d="M73.1393622,61.2537422 L73.7488346,62.0465495" id="Path-2-Copy-2" stroke="#FFFFFF" stroke-width="3" stroke-linecap="round"></path>
                    <path d="M52.0819778,56.7522453 L52.6914502,57.5450526" id="Path-2-Copy-3" stroke="#FFFFFF" stroke-width="3" stroke-linecap="round"></path>
                    <path d="M44.5614833,68.0059875 L45.1709557,68.7987948" id="Path-2-Copy-4" stroke="#FFFFFF" stroke-width="3" stroke-linecap="round"></path>
                    <path d="M22,61.2537422 L22.6094724,62.0465495" id="Path-2-Copy-5" stroke="#FFFFFF" stroke-width="3" stroke-linecap="round"></path>
                </g>
            </g>
        </g>
    </g>
</svg>