<?xml version="1.0" encoding="UTF-8"?>
<svg width="139px" height="96px" viewBox="0 0 139 96" version="1.1" xmlns="http://www.w3.org/2000/svg" xmlns:xlink="http://www.w3.org/1999/xlink">
    <!-- Generator: Sketch 42 (36781) - http://www.bohemiancoding.com/sketch -->
    <title>Sun-Cloudy</title>
    <desc>Created with Sketch.</desc>
    <defs></defs>
    <g id="Welcome" stroke="none" stroke-width="1" fill="none" fill-rule="evenodd">
        <g id="Desktop-HD" transform="translate(-571.000000, -1779.000000)">
            <g id="Weather-Section" transform="translate(-1.000000, 1678.000000)">
                <g id="wed-15/03" transform="translate(571.000000, 49.000000)">
                    <g id="Sun-Cloudy" transform="translate(1.000000, 52.000000)">
                        <circle id="Sun" fill="#EFE79C" cx="69" cy="48" r="48"></circle>
                        <g id="Couldy3" transform="translate(0.000000, 15.000000)" fill="#FFFFFF">
                            <path d="M0,65.5024373 L113.620392,65.5024373 C113.620392,65.5024373 110.231134,52.3131982 92.0254388,56.9148746 C77.4385817,37.076667 53.3007055,46.8814388 53.3007055,46.8814388 C51.0124105,40.6817081 33.3849952,31.4593149 20.7400648,49.2357745 C5.86123068,48.4996793 0,65.5024373 0,65.5024373 Z" id="Cloud"></path>
                            <path d="M60.8497854,18.2678571 L138.851809,18.2678571 C138.851809,18.2678571 136.525034,9.213256 124.026565,12.3723726 C114.012479,-1.24684048 97.4414817,5.48427553 97.4414817,5.48427553 C95.8705344,1.22807174 83.7690618,-5.10323302 75.0881364,7.10056061 C64.8736041,6.59522076 60.8497854,18.2678571 60.8497854,18.2678571 Z" id="Cloud-2" transform="translate(99.850797, 9.133929) scale(-1, 1) translate(-99.850797, -9.133929) "></path>
                        </g>
                    </g>
                </g>
            </g>
        </g>
    </g>
</svg>